PathFileType	4	(X/Y/Z)	max-elbow-flex-wide_P0_1-783_filt_butterworth_LSTM.trc
DataRate	CameraRate	NumFrames	NumMarkers	Units	OrigDataRate	OrigDataStartFrame	OrigNumFrames
60	60	70	3	m	60	294	782
Frame#	Time	r_acromion			r_humerus_epicondyle			r_radius_styloid		
X1	Y1	Z1	X2	Y2	Z2	X3	Y3	Z3
294	4.9	-0.007399999999999962	0.8274999999999999	0.19290000000000018	0.27260000000000006	0.7617	0.2399000000000001	0.4629	0.8789	0.2785000000000001
295	4.9167	-0.007199999999999984	0.8278999999999999	0.19310000000000016	0.2724	0.7630999999999999	0.2399000000000001	0.46440000000000003	0.8756999999999999	0.28110000000000024
296	4.9333	-0.006899999999999962	0.8282	0.19290000000000018	0.2723	0.7643	0.23970000000000014	0.4659	0.8727	0.2835000000000002
297	4.95	-0.006699999999999984	0.8284	0.19250000000000023	0.2723	0.7653999999999999	0.2392000000000002	0.4675	0.8694999999999999	0.2855000000000002
298	4.9667	-0.006599999999999995	0.8286	0.19190000000000007	0.27249999999999996	0.7665	0.23820000000000008	0.46940000000000004	0.8655999999999999	0.28700000000000025
299	4.9833	-0.006699999999999984	0.8288	0.19140000000000013	0.27280000000000004	0.7675999999999998	0.23690000000000022	0.4716	0.8612	0.28780000000000017
300	5.0	-0.007199999999999984	0.829	0.19110000000000016	0.2732	0.7687999999999999	0.23530000000000018	0.4739	0.8566	0.28790000000000016
301	5.0167	-0.007899999999999963	0.8291999999999999	0.19100000000000017	0.27380000000000004	0.7698	0.23370000000000013	0.47620000000000007	0.8524	0.2877000000000002
302	5.0333	-0.008599999999999997	0.8292999999999999	0.19100000000000017	0.27449999999999997	0.7706999999999999	0.23230000000000006	0.47840000000000005	0.8485	0.2874000000000002
303	5.05	-0.009099999999999997	0.8294999999999999	0.19100000000000017	0.2753	0.7715999999999998	0.2310000000000002	0.48030000000000006	0.8449	0.2876000000000002
304	5.0667	-0.009199999999999986	0.8297999999999999	0.19090000000000018	0.2762	0.7724	0.22970000000000013	0.48150000000000004	0.8412999999999999	0.2884000000000001
305	5.0833	-0.009199999999999986	0.8299999999999998	0.1907000000000002	0.277	0.7731999999999999	0.22860000000000025	0.482	0.8375999999999999	0.28980000000000017
306	5.1	-0.009000000000000008	0.8303	0.19050000000000022	0.27780000000000005	0.774	0.22770000000000012	0.4819	0.8341999999999998	0.29180000000000017
307	5.1167	-0.008899999999999963	0.8305	0.19030000000000025	0.2784	0.7746	0.2271000000000002	0.48140000000000005	0.831	0.29390000000000016
308	5.1333	-0.008799999999999975	0.8306	0.19040000000000024	0.27870000000000006	0.7749999999999999	0.2269000000000002	0.4808	0.8282	0.29620000000000013
309	5.15	-0.008699999999999986	0.8306	0.1906000000000002	0.27890000000000004	0.7752999999999999	0.22680000000000022	0.48030000000000006	0.8255999999999999	0.2984000000000001
310	5.1667	-0.008599999999999997	0.8306	0.19090000000000018	0.27890000000000004	0.7754999999999999	0.22670000000000023	0.48020000000000007	0.8229	0.3005000000000001
311	5.1833	-0.008500000000000008	0.8305	0.19110000000000016	0.27880000000000005	0.7756999999999998	0.22660000000000025	0.48030000000000006	0.8200999999999998	0.3024000000000001
312	5.2	-0.008299999999999974	0.8304	0.19120000000000015	0.27860000000000007	0.776	0.22650000000000026	0.4807	0.8171999999999999	0.30410000000000015
313	5.2167	-0.008199999999999985	0.8302	0.19110000000000016	0.27849999999999997	0.7763	0.22640000000000005	0.48109999999999997	0.8144	0.3055000000000002
314	5.2333	-0.008199999999999985	0.8300999999999998	0.19090000000000018	0.2784	0.7765	0.22650000000000026	0.4817	0.8117999999999999	0.3066000000000001
315	5.25	-0.008199999999999985	0.8300999999999998	0.1907000000000002	0.2782	0.7764	0.22670000000000023	0.48230000000000006	0.8093999999999999	0.30730000000000024
316	5.2667	-0.008199999999999985	0.8300999999999998	0.19050000000000022	0.278	0.7762	0.22680000000000022	0.4831	0.8070999999999999	0.3077000000000002
317	5.2833	-0.008099999999999996	0.8302	0.19040000000000024	0.27790000000000004	0.7758	0.2270000000000002	0.4837	0.8048	0.30800000000000016
318	5.3	-0.007899999999999963	0.8303	0.19040000000000024	0.27770000000000006	0.7753999999999999	0.22720000000000018	0.4841	0.8025	0.30830000000000013
319	5.3167	-0.007599999999999996	0.8304	0.19040000000000024	0.2773	0.7749999999999999	0.22730000000000017	0.48419999999999996	0.8005	0.3087000000000001
320	5.3333	-0.007199999999999984	0.8305	0.19050000000000022	0.27680000000000005	0.7746	0.22740000000000016	0.4841	0.7986	0.30940000000000023
321	5.35	-0.006799999999999973	0.8306	0.1907000000000002	0.2762	0.7741	0.22760000000000014	0.4838	0.7968	0.31030000000000013
322	5.3667	-0.006299999999999972	0.8306	0.1907000000000002	0.27549999999999997	0.7736999999999998	0.2280000000000001	0.48350000000000004	0.7948999999999999	0.31120000000000025
323	5.3833	-0.005899999999999961	0.8306	0.19050000000000022	0.27470000000000006	0.7731999999999999	0.22860000000000025	0.4831	0.7928999999999999	0.3119000000000002
324	5.4	-0.005500000000000005	0.8305	0.19020000000000026	0.27380000000000004	0.7727999999999999	0.22940000000000016	0.4827	0.7910999999999999	0.31230000000000013
325	5.4167	-0.005099999999999993	0.8305	0.18980000000000008	0.27290000000000003	0.7723	0.2300000000000001	0.48240000000000005	0.7894999999999999	0.3124000000000001
326	5.4333	-0.004799999999999971	0.8303	0.18940000000000012	0.2723	0.772	0.23040000000000005	0.48230000000000006	0.788	0.3125000000000001
327	5.45	-0.00489999999999996	0.8302	0.18910000000000016	0.27190000000000003	0.7718	0.23060000000000025	0.48219999999999996	0.7866	0.3125000000000001
328	5.4667	-0.00539999999999996	0.8299999999999998	0.18890000000000018	0.27180000000000004	0.7715999999999998	0.23060000000000025	0.48219999999999996	0.7851999999999999	0.3125000000000001
329	5.4833	-0.006299999999999972	0.8298999999999999	0.18890000000000018	0.27170000000000005	0.7714999999999999	0.23060000000000025	0.4821	0.7837999999999998	0.31230000000000013
330	5.5	-0.007399999999999962	0.8298999999999999	0.18900000000000017	0.27180000000000004	0.7712999999999999	0.23060000000000025	0.4821	0.7826	0.31200000000000017
331	5.5167	-0.008299999999999974	0.8299999999999998	0.18920000000000015	0.27190000000000003	0.7710999999999999	0.23060000000000025	0.482	0.7815999999999999	0.3117000000000002
332	5.5333	-0.009000000000000008	0.8300999999999998	0.18940000000000012	0.272	0.7707999999999999	0.23070000000000024	0.4818	0.7808999999999999	0.31130000000000024
333	5.55	-0.009500000000000008	0.8302	0.1897000000000001	0.2723	0.7705	0.23090000000000022	0.48160000000000003	0.7802	0.31090000000000007
334	5.5667	-0.009799999999999975	0.8302	0.19010000000000005	0.27249999999999996	0.7702	0.2310000000000002	0.48130000000000006	0.7794999999999999	0.3107000000000001
335	5.5833	-0.010000000000000009	0.8300999999999998	0.19030000000000025	0.27249999999999996	0.77	0.23120000000000018	0.48109999999999997	0.7787999999999999	0.3105000000000001
336	5.6	-0.010199999999999987	0.8298999999999999	0.19030000000000025	0.2724	0.7699	0.23140000000000016	0.48109999999999997	0.7779	0.3106000000000001
337	5.6167	-0.01050000000000001	0.8295999999999999	0.19030000000000025	0.2721	0.7696999999999998	0.23160000000000014	0.48130000000000006	0.7770999999999999	0.31090000000000007
338	5.6333	-0.010799999999999976	0.8292999999999999	0.19030000000000025	0.27180000000000004	0.7694999999999999	0.23160000000000014	0.48160000000000003	0.7763	0.31140000000000023
339	5.65	-0.011099999999999999	0.8291	0.19050000000000022	0.27149999999999996	0.7692999999999999	0.23170000000000013	0.4819	0.7755999999999998	0.31200000000000017
340	5.6667	-0.01150000000000001	0.8289	0.1908000000000002	0.2713	0.7688999999999999	0.23180000000000012	0.4819	0.7748999999999999	0.3126000000000001
341	5.6833	-0.011699999999999988	0.8288	0.19110000000000016	0.2714	0.7684	0.23180000000000012	0.48160000000000003	0.7741	0.31300000000000006
342	5.7	-0.01150000000000001	0.8288	0.19150000000000011	0.27160000000000006	0.768	0.23180000000000012	0.48120000000000007	0.7733999999999999	0.31330000000000024
343	5.7167	-0.011199999999999988	0.8289	0.19190000000000007	0.272	0.7675999999999998	0.23170000000000013	0.4809	0.7726999999999999	0.31340000000000023
344	5.7333	-0.010799999999999976	0.8289	0.19230000000000025	0.2724	0.7673999999999999	0.23160000000000014	0.4807	0.7722	0.31340000000000023
345	5.75	-0.010399999999999965	0.8289	0.19250000000000023	0.27260000000000006	0.7671999999999999	0.23150000000000015	0.4806	0.7719	0.31340000000000023
346	5.7667	-0.010199999999999987	0.829	0.19260000000000022	0.27280000000000004	0.7671999999999999	0.23140000000000016	0.48050000000000004	0.7718	0.31340000000000023
347	5.7833	-0.010099999999999998	0.829	0.19260000000000022	0.27280000000000004	0.7671999999999999	0.23130000000000017	0.48050000000000004	0.7716999999999998	0.31340000000000023
348	5.8	-0.010099999999999998	0.829	0.19260000000000022	0.27280000000000004	0.7671999999999999	0.23130000000000017	0.48050000000000004	0.7718	0.31340000000000023
349	5.8167	-0.010099999999999998	0.829	0.19260000000000022	0.27280000000000004	0.7672999999999999	0.23130000000000017	0.4806	0.7718	0.31340000000000023
350	5.8333	-0.010099999999999998	0.829	0.19260000000000022	0.27280000000000004	0.7672999999999999	0.23130000000000017	0.4806	0.7718	0.31340000000000023
351	5.85	-0.010199999999999987	0.829	0.19260000000000022	0.27280000000000004	0.7672999999999999	0.23130000000000017	0.4806	0.7718	0.31340000000000023
352	5.8667	-0.010199999999999987	0.829	0.19260000000000022	0.27280000000000004	0.7672999999999999	0.23130000000000017	0.4806	0.7719	0.31340000000000023
353	5.8833	-0.010199999999999987	0.829	0.19260000000000022	0.27280000000000004	0.7672999999999999	0.23130000000000017	0.4806	0.7719	0.31340000000000023
354	5.9	-0.010199999999999987	0.829	0.19260000000000022	0.27280000000000004	0.7672999999999999	0.23130000000000017	0.4806	0.7719	0.31340000000000023
355	5.9167	-0.010199999999999987	0.829	0.19260000000000022	0.27280000000000004	0.7672999999999999	0.23130000000000017	0.4806	0.7719	0.31340000000000023
356	5.9333	-0.010199999999999987	0.829	0.19260000000000022	0.27280000000000004	0.7672999999999999	0.23130000000000017	0.4806	0.7719	0.31340000000000023
357	5.95	-0.010199999999999987	0.829	0.19260000000000022	0.27280000000000004	0.7672999999999999	0.23130000000000017	0.4806	0.7719	0.31340000000000023
358	5.9667	-0.010199999999999987	0.829	0.19260000000000022	0.27280000000000004	0.7672999999999999	0.23130000000000017	0.4806	0.7719	0.31340000000000023
359	5.9833	-0.010199999999999987	0.829	0.19260000000000022	0.27280000000000004	0.7672999999999999	0.23130000000000017	0.4806	0.7719	0.31340000000000023
360	6.0	-0.010199999999999987	0.829	0.19260000000000022	0.27280000000000004	0.7672999999999999	0.23130000000000017	0.4806	0.7719	0.31340000000000023
361	6.0167	-0.010199999999999987	0.829	0.19260000000000022	0.27280000000000004	0.7672999999999999	0.23130000000000017	0.4806	0.7719	0.31340000000000023
362	6.0333	-0.010199999999999987	0.829	0.19260000000000022	0.27280000000000004	0.7672999999999999	0.23130000000000017	0.4806	0.7719	0.31340000000000023
363	6.05	-0.010199999999999987	0.829	0.19260000000000022	0.27280000000000004	0.7672999999999999	0.23130000000000017	0.4806	0.7719	0.31340000000000023
